<svg xmlns="http://www.w3.org/2000/svg" viewBox="0 0 16 16"><style>:root{color-scheme:light dark}g:target{fill-rule:evenodd}g.context:target{fill:context-fill;fill-opacity:context-fill-opacity}g.theme:target{fill:transparent}g.prefer-color-scheme.default:target{fill:#15141a}g.prefer-color-scheme.toolbar:target{fill:#5b5b66}@media (prefers-color-scheme:dark){g.prefer-color-scheme.default:target,g.prefer-color-scheme.toolbar:target{fill:#fbfbfe}}g.mask{fill:#000}g:not(.mask):not(:target),g:target~g.mask{display:none}</style><symbol id="icon"><path d="M12,1H4C2.346,1,1,2.346,1,4v8c0,1.654,1.346,3,3,3h8c1.654,0,3-1.346,3-3V4C15,2.346,13.654,1,12,1z M3,4 c0-0.551,0.449-1,1-1h8c0.552,0,1,0.449,1,1v2H4C3.5,6,3,5.5,3,5V4z M7,10c-0.5,0-1-0.5-1-1H5.99V7H13v3H7z M12,13h-2 c-0.5,0-1-0.5-1-1v-1h4v1C13,12.552,12.552,13,12,13z"/><circle cx="4.5" cy="4.5" r=".5"/><circle cx="7.5" cy="8.5" r=".5"/><circle cx="10.5" cy="12" r=".5"/></symbol><g id="toolbar-context" class="context toolbar"><use href="#icon"/></g><g id="default-context" class="context default"><use href="#icon"/></g><g id="toolbar-theme" class="theme toolbar"><use href="#icon"/></g><g id="default-theme" class="theme default"><use href="#icon"/></g><g id="toolbar" class="prefer-color-scheme toolbar"><use href="#icon"/></g><g id="default" class="prefer-color-scheme default"><use href="#icon"/></g><g id="mask" class="mask"><use href="#icon"/></g></svg>