<svg xmlns="http://www.w3.org/2000/svg" viewBox="0 0 20 20"><style>:root{color-scheme:light dark}g:target{fill-rule:evenodd}g.context:target{fill:context-fill;fill-opacity:context-fill-opacity}g.theme:target{fill:transparent}g.prefer-color-scheme.default:target{fill:#15141a}g.prefer-color-scheme.toolbar:target{fill:#5b5b66}@media (prefers-color-scheme:dark){g.prefer-color-scheme.default:target,g.prefer-color-scheme.toolbar:target{fill:#fbfbfe}}g.mask{fill:#000}g:not(.mask):not(:target),g:target~g.mask{display:none}</style><symbol id="icon"><path d="M16,1H4C2.346,1,1,2.346,1,4v12c0,1.654,1.346,3,3,3h12c1.654,0,3-1.346,3-3V4C19,2.346,17.654,1,16,1z M8,12c-0.5,0-1-0.5-1-1V8h10v4H8z M3,4c0-0.551,0.449-1,1-1h12c0.552,0,1,0.449,1,1v3H4C3.5,7,3,6.5,3,6V4z M16,17h-4 c-0.5,0-1-0.5-1-1v-3h6v3C17,16.552,16.552,17,16,17z"/><circle cx="5" cy="5" r="1"/><circle cx="9" cy="10" r="1"/><circle cx="13" cy="15" r="1"/></symbol><g id="toolbar-context" class="context toolbar"><use href="#icon"/></g><g id="default-context" class="context default"><use href="#icon"/></g><g id="toolbar-theme" class="theme toolbar"><use href="#icon"/></g><g id="default-theme" class="theme default"><use href="#icon"/></g><g id="toolbar" class="prefer-color-scheme toolbar"><use href="#icon"/></g><g id="default" class="prefer-color-scheme default"><use href="#icon"/></g><g id="mask" class="mask"><use href="#icon"/></g></svg>