<svg xmlns="http://www.w3.org/2000/svg" viewBox="0 0 24 24"><style>:root{color-scheme:light dark}g:target{fill-rule:evenodd}g.context:target{fill:context-fill;fill-opacity:context-fill-opacity}g.theme:target{fill:transparent}g.prefer-color-scheme.default:target{fill:#15141a}g.prefer-color-scheme.toolbar:target{fill:#5b5b66}@media (prefers-color-scheme:dark){g.prefer-color-scheme.default:target,g.prefer-color-scheme.toolbar:target{fill:#fbfbfe}}g.mask{fill:#000}g:not(.mask):not(:target),g:target~g.mask{display:none}</style><symbol id="icon"><path d="M20,1H4C2.346,1,1,2.346,1,4v16c0,1.654,1.346,3,3,3h16c1.654,0,3-1.346,3-3V4C23,2.346,21.654,1,20,1z M9,15c-0.5,0-1-0.5-1-1v-4h13v5H9z M3,4c0-0.551,0.449-1,1-1h16c0.552,0,1,0.449,1,1v5H4C3.5,9,3,8.5,3,8V4z M20,21h-6 c-0.5,0-1-0.5-1-1v-4h8v4C21,20.552,20.552,21,20,21z"/><circle cx="6" cy="6" r="1"/><circle cx="11" cy="12.375" r="1"/><circle cx="16" cy="18.5" r="1"/></symbol><g id="toolbar-context" class="context toolbar"><use href="#icon"/></g><g id="default-context" class="context default"><use href="#icon"/></g><g id="toolbar-theme" class="theme toolbar"><use href="#icon"/></g><g id="default-theme" class="theme default"><use href="#icon"/></g><g id="toolbar" class="prefer-color-scheme toolbar"><use href="#icon"/></g><g id="default" class="prefer-color-scheme default"><use href="#icon"/></g><g id="mask" class="mask"><use href="#icon"/></g></svg>